<svg width="20" height="20" viewBox="0 0 20 20" fill="none" xmlns="http://www.w3.org/2000/svg">
<path d="M15 7.16797C15 5.84189 14.4732 4.57012 13.5355 3.63243C12.5979 2.69475 11.3261 2.16797 10 2.16797C8.67392 2.16797 7.40215 2.69475 6.46447 3.63243C5.52678 4.57012 5 5.84189 5 7.16797C5 13.0013 2.5 14.668 2.5 14.668H17.5C17.5 14.668 15 13.0013 15 7.16797Z" stroke="#083643" stroke-width="1.5" stroke-linejoin="round"/>
<path d="M12 16.5C11.7968 16.8042 11.505 17.0566 11.154 17.2321C10.803 17.4076 10.4051 17.5 10 17.5C9.59494 17.5 9.19698 17.4076 8.84598 17.2321C8.49498 17.0566 8.20325 16.8042 8 16.5" stroke="#083643" stroke-width="1.5" stroke-linejoin="round"/>
</svg>
