<svg width="233" height="70" viewBox="0 0 233 70" fill="none" xmlns="http://www.w3.org/2000/svg">
<path d="M17.5012 4.69417C34.237 -4.9692 55.637 0.765474 65.2995 17.5029C74.9619 34.2404 69.2278 55.6425 52.492 65.3058C35.7561 74.9692 14.3561 69.2345 4.69371 52.4971C-4.96871 35.7596 0.7654 14.3575 17.5012 4.69417Z" fill="url(#paint0_linear)"/>
<path d="M17.5012 4.69417C34.237 -4.9692 55.637 0.765474 65.2995 17.5029C74.9619 34.2404 69.2278 55.6425 52.492 65.3058C35.7561 74.9692 14.3561 69.2345 4.69371 52.4971C-4.96871 35.7596 0.7654 14.3575 17.5012 4.69417Z" fill="url(#paint1_linear)"/>
<path d="M17.5012 4.69417C34.237 -4.9692 55.637 0.765474 65.2995 17.5029C74.9619 34.2404 69.2278 55.6425 52.492 65.3058C35.7561 74.9692 14.3561 69.2345 4.69371 52.4971C-4.96871 35.7596 0.7654 14.3575 17.5012 4.69417Z" fill="url(#paint2_linear)"/>
<path d="M43.4235 28.4166C44.7582 28.4166 45.9169 28.6366 46.8995 29.0767C47.8969 29.5166 48.6595 30.1473 49.1875 30.9686C49.7155 31.79 49.9795 32.7653 49.9795 33.8946C49.9795 35.0093 49.7155 35.9846 49.1875 36.8206C48.6595 37.642 47.8969 38.2726 46.8995 38.7127C45.9169 39.1527 44.7582 39.3727 43.4235 39.3727H39.9475V43.8167H37.0875V28.4166H43.4235ZM43.2915 36.9527C44.5382 36.9527 45.4842 36.6887 46.1295 36.1606C46.7749 35.6327 47.0975 34.8773 47.0975 33.8946C47.0975 32.912 46.7749 32.1567 46.1295 31.6286C45.4842 31.1006 44.5382 30.8366 43.2915 30.8366H39.9475V36.9527H43.2915ZM52.7864 27.4926H55.5364V43.8167H52.7864V27.4926ZM63.6338 31.9366C65.3645 31.9366 66.6845 32.3547 67.5938 33.1907C68.5178 34.012 68.9798 35.2586 68.9798 36.9306V43.8167H66.3838V42.3867C66.0465 42.9 65.5625 43.296 64.9318 43.5747C64.3158 43.8387 63.5678 43.9707 62.6878 43.9707C61.8078 43.9707 61.0378 43.824 60.3778 43.5307C59.7178 43.2227 59.2045 42.8047 58.8378 42.2767C58.4858 41.734 58.3098 41.1253 58.3098 40.4507C58.3098 39.3947 58.6985 38.5513 59.4758 37.9207C60.2678 37.2753 61.5071 36.9527 63.1938 36.9527H66.2298V36.7766C66.2298 35.9553 65.9805 35.3247 65.4818 34.8846C64.9978 34.4446 64.2718 34.2246 63.3038 34.2246C62.6438 34.2246 61.9911 34.3273 61.3458 34.5326C60.7151 34.738 60.1798 35.024 59.7398 35.3907L58.6618 33.3886C59.2778 32.9193 60.0185 32.56 60.8838 32.3107C61.7491 32.0613 62.6658 31.9366 63.6338 31.9366ZM63.2598 41.9687C63.9491 41.9687 64.5578 41.8147 65.0858 41.5067C65.6285 41.184 66.0098 40.7293 66.2298 40.1427V38.7787H63.3918C61.8078 38.7787 61.0158 39.2993 61.0158 40.3407C61.0158 40.8393 61.2138 41.2353 61.6098 41.5287C62.0058 41.822 62.5558 41.9687 63.2598 41.9687ZM79.1751 31.9366C80.6564 31.9366 81.8444 32.3693 82.7391 33.2346C83.6337 34.1 84.0811 35.3833 84.0811 37.0846V43.8167H81.3311V37.4366C81.3311 36.41 81.0891 35.64 80.6051 35.1267C80.1211 34.5986 79.4317 34.3346 78.5371 34.3346C77.5251 34.3346 76.7257 34.6426 76.1391 35.2586C75.5524 35.86 75.2591 36.7327 75.2591 37.8767V43.8167H72.5091V32.0686H75.1271V33.5866C75.5817 33.044 76.1537 32.6333 76.8431 32.3546C77.5324 32.076 78.3097 31.9366 79.1751 31.9366ZM98.721 38.0087C98.721 38.1993 98.7064 38.4707 98.677 38.8227H89.459C89.6204 39.688 90.0384 40.3773 90.713 40.8907C91.4024 41.3893 92.253 41.6387 93.265 41.6387C94.5557 41.6387 95.619 41.2133 96.455 40.3627L97.929 42.0567C97.401 42.6873 96.7337 43.164 95.927 43.4867C95.1204 43.8093 94.211 43.9707 93.199 43.9707C91.9084 43.9707 90.7717 43.714 89.789 43.2007C88.8064 42.6873 88.0437 41.976 87.501 41.0667C86.973 40.1427 86.709 39.1013 86.709 37.9426C86.709 36.7986 86.9657 35.772 87.479 34.8627C88.007 33.9386 88.733 33.22 89.657 32.7067C90.581 32.1933 91.6224 31.9366 92.781 31.9366C93.925 31.9366 94.9444 32.1933 95.839 32.7067C96.7484 33.2053 97.4524 33.9166 97.951 34.8406C98.4644 35.75 98.721 36.806 98.721 38.0087ZM92.781 34.1366C91.901 34.1366 91.153 34.4006 90.537 34.9287C89.9357 35.442 89.569 36.1313 89.437 36.9967H96.103C95.9857 36.146 95.6264 35.4566 95.025 34.9287C94.4237 34.4006 93.6757 34.1366 92.781 34.1366ZM108.425 43.1787C108.102 43.4427 107.706 43.6407 107.237 43.7727C106.782 43.9047 106.298 43.9707 105.785 43.9707C104.494 43.9707 103.497 43.6333 102.793 42.9587C102.089 42.284 101.737 41.3013 101.737 40.0107V34.3567H99.8006V32.1566H101.737V29.4727H104.487V32.1566H107.633V34.3567H104.487V39.9447C104.487 40.5167 104.626 40.9567 104.905 41.2647C105.183 41.558 105.587 41.7047 106.115 41.7047C106.731 41.7047 107.244 41.5433 107.655 41.2207L108.425 43.1787ZM122.047 43.9707C120.859 43.9707 119.788 43.714 118.835 43.2007C117.882 42.6873 117.134 41.976 116.591 41.0667C116.063 40.1427 115.799 39.1013 115.799 37.9426C115.799 36.784 116.063 35.75 116.591 34.8406C117.134 33.9313 117.882 33.22 118.835 32.7067C119.788 32.1933 120.859 31.9366 122.047 31.9366C123.25 31.9366 124.328 32.1933 125.281 32.7067C126.234 33.22 126.975 33.9313 127.503 34.8406C128.046 35.75 128.317 36.784 128.317 37.9426C128.317 39.1013 128.046 40.1427 127.503 41.0667C126.975 41.976 126.234 42.6873 125.281 43.2007C124.328 43.714 123.25 43.9707 122.047 43.9707ZM122.047 41.6167C123.059 41.6167 123.895 41.2793 124.555 40.6047C125.215 39.93 125.545 39.0427 125.545 37.9426C125.545 36.8427 125.215 35.9553 124.555 35.2807C123.895 34.606 123.059 34.2687 122.047 34.2687C121.035 34.2687 120.199 34.606 119.539 35.2807C118.894 35.9553 118.571 36.8427 118.571 37.9426C118.571 39.0427 118.894 39.93 119.539 40.6047C120.199 41.2793 121.035 41.6167 122.047 41.6167ZM135.721 29.5607C134.562 29.5607 133.983 30.1913 133.983 31.4526V32.1566H137.217V34.3567H134.071V43.8167H131.321V34.3567H129.385V32.1566H131.321V31.4087C131.321 30.1473 131.687 29.1573 132.421 28.4386C133.154 27.7053 134.188 27.3387 135.523 27.3387C136.579 27.3387 137.407 27.5513 138.009 27.9766L137.239 30.0446C136.769 29.722 136.263 29.5607 135.721 29.5607ZM151.66 31.9366C152.804 31.9366 153.823 32.186 154.718 32.6846C155.627 33.1833 156.338 33.8873 156.852 34.7966C157.365 35.706 157.622 36.7546 157.622 37.9426C157.622 39.1307 157.365 40.1867 156.852 41.1107C156.338 42.02 155.627 42.724 154.718 43.2227C153.823 43.7213 152.804 43.9707 151.66 43.9707C150.853 43.9707 150.112 43.8313 149.438 43.5527C148.778 43.274 148.22 42.856 147.766 42.2987V43.8167H145.148V27.4926H147.898V33.4987C148.367 32.9853 148.917 32.5967 149.548 32.3327C150.193 32.0686 150.897 31.9366 151.66 31.9366ZM151.352 41.6167C152.364 41.6167 153.192 41.2793 153.838 40.6047C154.498 39.93 154.828 39.0427 154.828 37.9426C154.828 36.8427 154.498 35.9553 153.838 35.2807C153.192 34.606 152.364 34.2687 151.352 34.2687C150.692 34.2687 150.098 34.4227 149.57 34.7307C149.042 35.024 148.624 35.4493 148.316 36.0066C148.008 36.564 147.854 37.2093 147.854 37.9426C147.854 38.676 148.008 39.3213 148.316 39.8787C148.624 40.436 149.042 40.8687 149.57 41.1767C150.098 41.47 150.692 41.6167 151.352 41.6167ZM164.567 31.9366C166.298 31.9366 167.618 32.3547 168.527 33.1907C169.451 34.012 169.913 35.2586 169.913 36.9306V43.8167H167.317V42.3867C166.98 42.9 166.496 43.296 165.865 43.5747C165.249 43.8387 164.501 43.9707 163.621 43.9707C162.741 43.9707 161.971 43.824 161.311 43.5307C160.651 43.2227 160.138 42.8047 159.771 42.2767C159.419 41.734 159.243 41.1253 159.243 40.4507C159.243 39.3947 159.632 38.5513 160.409 37.9207C161.201 37.2753 162.441 36.9527 164.127 36.9527H167.163V36.7766C167.163 35.9553 166.914 35.3247 166.415 34.8846C165.931 34.4446 165.205 34.2246 164.237 34.2246C163.577 34.2246 162.925 34.3273 162.279 34.5326C161.649 34.738 161.113 35.024 160.673 35.3907L159.595 33.3886C160.211 32.9193 160.952 32.56 161.817 32.3107C162.683 32.0613 163.599 31.9366 164.567 31.9366ZM164.193 41.9687C164.883 41.9687 165.491 41.8147 166.019 41.5067C166.562 41.184 166.943 40.7293 167.163 40.1427V38.7787H164.325C162.741 38.7787 161.949 39.2993 161.949 40.3407C161.949 40.8393 162.147 41.2353 162.543 41.5287C162.939 41.822 163.489 41.9687 164.193 41.9687ZM173.443 27.4926H176.193V43.8167H173.443V27.4926ZM184.29 31.9366C186.021 31.9366 187.341 32.3547 188.25 33.1907C189.174 34.012 189.636 35.2586 189.636 36.9306V43.8167H187.04V42.3867C186.703 42.9 186.219 43.296 185.588 43.5747C184.972 43.8387 184.224 43.9707 183.344 43.9707C182.464 43.9707 181.694 43.824 181.034 43.5307C180.374 43.2227 179.861 42.8047 179.494 42.2767C179.142 41.734 178.966 41.1253 178.966 40.4507C178.966 39.3947 179.355 38.5513 180.132 37.9207C180.924 37.2753 182.163 36.9527 183.85 36.9527H186.886V36.7766C186.886 35.9553 186.637 35.3247 186.138 34.8846C185.654 34.4446 184.928 34.2246 183.96 34.2246C183.3 34.2246 182.647 34.3273 182.002 34.5326C181.371 34.738 180.836 35.024 180.396 35.3907L179.318 33.3886C179.934 32.9193 180.675 32.56 181.54 32.3107C182.405 32.0613 183.322 31.9366 184.29 31.9366ZM183.916 41.9687C184.605 41.9687 185.214 41.8147 185.742 41.5067C186.285 41.184 186.666 40.7293 186.886 40.1427V38.7787H184.048C182.464 38.7787 181.672 39.2993 181.672 40.3407C181.672 40.8393 181.87 41.2353 182.266 41.5287C182.662 41.822 183.212 41.9687 183.916 41.9687ZM199.831 31.9366C201.313 31.9366 202.501 32.3693 203.395 33.2346C204.29 34.1 204.737 35.3833 204.737 37.0846V43.8167H201.987V37.4366C201.987 36.41 201.745 35.64 201.261 35.1267C200.777 34.5986 200.088 34.3346 199.193 34.3346C198.181 34.3346 197.382 34.6426 196.795 35.2586C196.209 35.86 195.915 36.7327 195.915 37.8767V43.8167H193.165V32.0686H195.783V33.5866C196.238 33.044 196.81 32.6333 197.499 32.3546C198.189 32.076 198.966 31.9366 199.831 31.9366ZM213.723 43.9707C212.506 43.9707 211.413 43.714 210.445 43.2007C209.477 42.6873 208.722 41.976 208.179 41.0667C207.637 40.1427 207.365 39.1013 207.365 37.9426C207.365 36.784 207.637 35.75 208.179 34.8406C208.722 33.9313 209.47 33.22 210.423 32.7067C211.391 32.1933 212.491 31.9366 213.723 31.9366C214.882 31.9366 215.894 32.1713 216.759 32.6407C217.639 33.11 218.299 33.7847 218.739 34.6647L216.627 35.8967C216.29 35.354 215.865 34.9507 215.351 34.6866C214.853 34.408 214.303 34.2687 213.701 34.2687C212.675 34.2687 211.824 34.606 211.149 35.2807C210.475 35.9406 210.137 36.828 210.137 37.9426C210.137 39.0573 210.467 39.952 211.127 40.6267C211.802 41.2867 212.66 41.6167 213.701 41.6167C214.303 41.6167 214.853 41.4847 215.351 41.2207C215.865 40.942 216.29 40.5313 216.627 39.9887L218.739 41.2207C218.285 42.1007 217.617 42.7827 216.737 43.2667C215.872 43.736 214.867 43.9707 213.723 43.9707ZM231.989 38.0087C231.989 38.1993 231.974 38.4707 231.945 38.8227H222.727C222.888 39.688 223.306 40.3773 223.981 40.8907C224.67 41.3893 225.521 41.6387 226.533 41.6387C227.823 41.6387 228.887 41.2133 229.723 40.3627L231.197 42.0567C230.669 42.6873 230.001 43.164 229.195 43.4867C228.388 43.8093 227.479 43.9707 226.467 43.9707C225.176 43.9707 224.039 43.714 223.057 43.2007C222.074 42.6873 221.311 41.976 220.769 41.0667C220.241 40.1427 219.977 39.1013 219.977 37.9426C219.977 36.7986 220.233 35.772 220.747 34.8627C221.275 33.9386 222.001 33.22 222.925 32.7067C223.849 32.1933 224.89 31.9366 226.049 31.9366C227.193 31.9366 228.212 32.1933 229.107 32.7067C230.016 33.2053 230.72 33.9166 231.219 34.8406C231.732 35.75 231.989 36.806 231.989 38.0087ZM226.049 34.1366C225.169 34.1366 224.421 34.4006 223.805 34.9287C223.203 35.442 222.837 36.1313 222.705 36.9967H229.371C229.253 36.146 228.894 35.4566 228.293 34.9287C227.691 34.4006 226.943 34.1366 226.049 34.1366Z" fill="#083643"/>
<defs>
<linearGradient id="paint0_linear" x1="4.69371" y1="52.497" x2="65.3024" y2="17.508" gradientUnits="userSpaceOnUse">
<stop offset="0.9999" stop-color="#B1E001"/>
<stop offset="1" stop-color="#B1E001" stop-opacity="0"/>
</linearGradient>
<linearGradient id="paint1_linear" x1="50.2714" y1="-8.52909" x2="16.1273" y2="72.31" gradientUnits="userSpaceOnUse">
<stop stop-color="#B1E001"/>
<stop offset="0.477851" stop-color="white" stop-opacity="0"/>
</linearGradient>
<linearGradient id="paint2_linear" x1="4.69371" y1="52.497" x2="65.3024" y2="17.508" gradientUnits="userSpaceOnUse">
<stop stop-color="#08A76B"/>
<stop offset="0.0001" stop-color="#36B887" stop-opacity="0.8125"/>
<stop offset="0.109375" stop-color="#08A76B" stop-opacity="0.9"/>
<stop offset="0.244792" stop-color="#29B37F" stop-opacity="0.837443"/>
<stop offset="0.458333" stop-color="#55C399" stop-opacity="0.664714"/>
<stop offset="0.9999" stop-color="#F8FCFB" stop-opacity="0.0296254"/>
<stop offset="1" stop-color="white" stop-opacity="0"/>
</linearGradient>
</defs>
</svg>
