<svg width="20" height="20" viewBox="0 0 20 20" fill="none" xmlns="http://www.w3.org/2000/svg">
<path d="M4.37484 3.33203H15.6248C17.069 3.33203 18.2492 4.46241 18.3289 5.88668L18.3332 6.04036V13.957C18.3332 15.4012 17.2028 16.5814 15.7785 16.6611L15.6248 16.6654H4.37484C2.93064 16.6654 1.75047 15.535 1.67079 14.1107L1.6665 13.957V6.04036C1.6665 4.59617 2.79688 3.41599 4.22115 3.33632L4.37484 3.33203H15.6248H4.37484ZM17.0832 7.80953L10.2909 11.3851C10.1347 11.4673 9.95245 11.479 9.78881 11.4203L9.70875 11.3851L2.9165 7.81036V13.957C2.9165 14.7222 3.50576 15.3497 4.25523 15.4105L4.37484 15.4154H15.6248C16.39 15.4154 17.0175 14.8261 17.0783 14.0766L17.0832 13.957V7.80953ZM15.6248 4.58203H4.37484C3.60969 4.58203 2.98218 5.17129 2.92134 5.92076L2.9165 6.04036V6.39786L9.99984 10.1257L17.0832 6.39703V6.04036C17.0832 5.27522 16.4939 4.6477 15.7444 4.58687L15.6248 4.58203Z" fill="#083643"/>
</svg>
