<svg width="0" height="0" class="hidden">
  <symbol fill="none" xmlns="http://www.w3.org/2000/svg" viewBox="0 0 20 20" id="bell">
    <path d="M15 7.168a5 5 0 00-10 0c0 5.833-2.5 7.5-2.5 7.5h15s-2.5-1.667-2.5-7.5zM12 16.5a2.186 2.186 0 01-.846.732A2.588 2.588 0 0110 17.5c-.405 0-.803-.092-1.154-.268A2.186 2.186 0 018 16.5" stroke="#083643" stroke-width="1.5" stroke-linejoin="round"></path>
  </symbol>
  <symbol fill="none" xmlns="http://www.w3.org/2000/svg" viewBox="0 0 20 20" id="cart">
    <path d="M.833 2.082h2.5L4.34 4.999l2.16 6.666 9.417-.25 2-6" stroke="#083643" stroke-width="1.5" stroke-linejoin="round"></path>
    <circle cx="8.083" cy="15.835" stroke="#083643" stroke-width="1.5" r="1.667"></circle>
    <circle cx="14.5" cy="15.835" stroke="#083643" stroke-width="1.5" r="1.667"></circle>
  </symbol>
  <symbol fill="none" xmlns="http://www.w3.org/2000/svg" viewBox="0 0 20 20" id="mail">
    <path d="M4.375 3.332h11.25a2.709 2.709 0 012.704 2.555l.004.153v7.917a2.709 2.709 0 01-2.554 2.704l-.154.004H4.375a2.708 2.708 0 01-2.704-2.554l-.004-.154V6.04A2.708 2.708 0 014.22 3.336l.154-.004h11.25-11.25zM17.083 7.81l-6.792 3.575a.625.625 0 01-.502.035l-.08-.035L2.917 7.81v6.147c0 .765.589 1.393 1.338 1.454l.12.004h11.25c.765 0 1.392-.589 1.453-1.338l.005-.12V7.81zm-1.458-3.228H4.375a1.46 1.46 0 00-1.454 1.339l-.004.12v.357L10 10.126l7.083-3.729V6.04c0-.765-.59-1.392-1.339-1.453l-.12-.005z" fill="#083643"></path>
  </symbol>
  <symbol fill="none" xmlns="http://www.w3.org/2000/svg" viewBox="0 0 20 20" id="search">
    <path d="M17.5 17.5l-4.597-4.597m0 0a6.094 6.094 0 10-8.618-8.618 6.094 6.094 0 008.618 8.618z" stroke="#083643" stroke-width="1.5" stroke-linejoin="round"></path>
  </symbol>
  <symbol  viewBox="0 0 18 19" xmlns="http://www.w3.org/2000/svg" id="trash">
<path d="M9 0.75C10.5457 0.75 11.8088 1.97248 11.8941 3.5128L11.8986 3.67901H16.5811C16.9505 3.67901 17.25 3.98163 17.25 4.35494C17.25 4.69713 16.9983 4.97994 16.6718 5.02469L16.5811 5.03086H15.8711L14.7294 16.7642C14.611 17.98 13.6364 18.9189 12.445 18.995L12.2885 19H5.71153C4.5025 19 3.48245 18.1118 3.29085 16.9212L3.27061 16.7642L2.12797 5.03086H1.41892C1.08027 5.03086 0.8004 4.77658 0.756106 4.44666L0.75 4.35494C0.75 4.01274 1.00165 3.72994 1.32815 3.68518L1.41892 3.67901H6.10135C6.10135 2.06136 7.39912 0.75 9 0.75ZM14.5271 5.03086H3.47205L4.60202 16.6319C4.65441 17.1701 5.07597 17.5889 5.59819 17.6424L5.71153 17.6481H12.2885C12.8237 17.6481 13.2774 17.2652 13.3812 16.7453L13.398 16.6319L14.5271 5.03086ZM10.5608 7.50926C10.8995 7.50926 11.1793 7.76355 11.2236 8.09347L11.2297 8.18518V14.4938C11.2297 14.8671 10.9302 15.1698 10.5608 15.1698C10.2222 15.1698 9.94229 14.9155 9.898 14.5855L9.89189 14.4938V8.18518C9.89189 7.81188 10.1914 7.50926 10.5608 7.50926ZM7.43919 7.50926C7.77784 7.50926 8.05771 7.76355 8.102 8.09347L8.10811 8.18518V14.4938C8.10811 14.8671 7.80862 15.1698 7.43919 15.1698C7.10054 15.1698 6.82067 14.9155 6.77638 14.5855L6.77027 14.4938V8.18518C6.77027 7.81188 7.06976 7.50926 7.43919 7.50926ZM9 2.10185C8.18109 2.10185 7.50948 2.73912 7.44436 3.54966L7.43919 3.67901H10.5608C10.5608 2.80797 9.86201 2.10185 9 2.10185Z"/>
</symbol>
<symbol width="24" height="24" viewBox="0 0 24 24" fill="none" xmlns="http://www.w3.org/2000/svg" id="copy">
<rect x="3.7" y="1.7" width="12.6" height="16.6" rx="1.3" stroke="#083643" stroke-width="1.4"/>
<path fill-rule="evenodd" clip-rule="evenodd" d="M6.8293 20C6.8293 21.1046 7.72473 22 8.8293 22H18.8293C19.9339 22 20.8293 21.1046 20.8293 20V6C20.8293 4.89543 19.9339 4 18.8293 4H17.8293V5.4H18.8293C19.1607 5.4 19.4293 5.66863 19.4293 6V20C19.4293 20.3314 19.1607 20.6 18.8293 20.6H8.8293C8.49793 20.6 8.2293 20.3314 8.2293 20H6.8293Z" fill="#083643"/>
</symbol>
<symbol fill="none" viewBox="0 0 10 6" xmlns="http://www.w3.org/2000/svg" id="arrow-right">
<path d="M1 1L5 5L9 1" stroke="#28313A" stroke-linecap="round" stroke-linejoin="round"/>
</symbol>
</svg>