<svg width="18" height="20" viewBox="0 0 18 20" fill="none" xmlns="http://www.w3.org/2000/svg">
<path d="M8.53585 0.910881C8.80811 0.696373 9.19189 0.696373 9.46415 0.910881L16.5708 6.51003C17.4733 7.2211 18 8.30666 18 9.45563V18.75C18 19.4404 17.4404 20 16.75 20H11.75C11.0596 20 10.5 19.4404 10.5 18.75V13.75C10.5 13.6119 10.3881 13.5 10.25 13.5H7.75C7.61193 13.5 7.5 13.6119 7.5 13.75V18.75C7.5 19.4404 6.94036 20 6.25 20H1.25C0.559644 20 0 19.4404 0 18.75V9.45563C0 8.30666 0.526724 7.2211 1.42923 6.51003L8.53585 0.910881ZM9 2.45482L2.35754 7.68827C1.81603 8.11491 1.5 8.76625 1.5 9.45563V18.5H6V13.75C6 12.7835 6.7835 12 7.75 12H10.25C11.2165 12 12 12.7835 12 13.75V18.5H16.5V9.45563C16.5 8.76625 16.184 8.11491 15.6425 7.68827L9 2.45482Z" fill="#ABB7BF"/>
</svg>
