<svg width="24" height="24" viewBox="0 0 24 24" fill="none" xmlns="http://www.w3.org/2000/svg">
<path fill-rule="evenodd" clip-rule="evenodd" d="M12.5976 11.4296C12.8885 11.4929 13.1904 11.5263 13.5 11.5263C15.8431 11.5263 17.75 9.61358 17.75 7.26316C17.75 4.91274 15.8431 3 13.5 3C13.1746 3 12.8577 3.03688 12.5531 3.10668C13.1609 3.47285 13.702 3.9823 14.1238 4.57201C15.3372 4.85684 16.25 5.95339 16.25 7.26316C16.25 8.54 15.3825 9.61421 14.2148 9.9313C13.7958 10.5554 13.2403 11.0796 12.5976 11.4296ZM19.3 20.0526V21H20.5H21.0555H22V20.0526C22 19.8666 21.9923 19.6822 21.9772 19.5C21.6962 16.1015 18.848 13.4211 15.3889 13.4211H14.7085C15.7562 13.8278 16.6994 14.5068 17.4545 15.3598C19.0848 16.0869 20.2717 17.6465 20.4705 19.5H19.2761C19.2919 19.6833 19.3 19.8676 19.3 20.0526Z" fill="#ABB7BF"/>
<path d="M9.5 10.7763C7.57323 10.7763 6 9.20155 6 7.26316C6 5.32476 7.57323 3.75 9.5 3.75C11.4268 3.75 13 5.32476 13 7.26316C13 9.20155 11.4268 10.7763 9.5 10.7763ZM17.25 20.0526V20.25H17.0556H1.75V20.0526C1.75 16.8087 4.38202 14.1711 7.61111 14.1711H11.3889C14.6171 14.1711 17.25 16.8088 17.25 20.0526Z" stroke="#ABB7BF" stroke-width="1.5"/>
</svg>
