<svg width="18" height="20" viewBox="0 0 18 20" fill="none" xmlns="http://www.w3.org/2000/svg">
<path d="M10.6821 6.96429V3.9C10.6821 3.05992 10.6821 2.63988 10.5186 2.31901C10.3748 2.03677 10.1453 1.8073 9.86304 1.66349C9.54217 1.5 9.12213 1.5 8.28205 1.5H3.4C2.55992 1.5 2.13988 1.5 1.81901 1.66349C1.53677 1.8073 1.3073 2.03677 1.16349 2.31901C0.999999 2.63988 0.999999 3.05992 0.999999 3.9V10V16.1C0.999999 16.9401 0.999999 17.3601 1.16349 17.681C1.3073 17.9632 1.53677 18.1927 1.81901 18.3365C2.13988 18.5 2.55992 18.5 3.4 18.5H8.28205C9.12213 18.5 9.54217 18.5 9.86304 18.3365C10.1453 18.1927 10.3748 17.9632 10.5186 17.681C10.6821 17.3601 10.6821 16.9401 10.6821 16.1V13.0357M7.93333 10H17M17 10L14.3333 13.0357M17 10L14.3333 6.96429" stroke="#ABB7BF" stroke-width="1.5" stroke-linejoin="round"/>
</svg>
