<svg width="19" height="16" viewBox="0 0 19 16" fill="none" xmlns="http://www.w3.org/2000/svg">
<path d="M3.03388 0H15.6361C17.2539 0 18.5759 1.29965 18.6652 2.9372L18.67 3.11391V12.2161C18.67 13.8766 17.4037 15.2335 15.8083 15.3251L15.6361 15.33H3.03388C1.41609 15.33 0.094054 14.0303 0.0048027 12.3928L0 12.2161V3.11391C0 1.45345 1.26625 0.0965348 2.86172 0.00492917L3.03388 0ZM17.2698 5.14801L9.66108 9.25902C9.48613 9.35353 9.28192 9.36703 9.0986 9.29953L9.00892 9.25902L1.40025 5.14896V12.2161C1.40025 13.0958 2.06034 13.8173 2.89989 13.8873L3.03388 13.8928H15.6361C16.4932 13.8928 17.1962 13.2153 17.2643 12.3536L17.2698 12.2161V5.14801ZM15.6361 1.43719H3.03388C2.17676 1.43719 1.47382 2.11469 1.40567 2.97639L1.40025 3.11391V3.52494L9.335 7.81108L17.2698 3.52398V3.11391C17.2698 2.23418 16.6097 1.5127 15.7701 1.44275L15.6361 1.43719Z" fill="#ABB7BF"/>
</svg>
