<svg width="22" height="23" viewBox="0 0 22 23" fill="none" xmlns="http://www.w3.org/2000/svg">
<path d="M15.0002 11C18.6911 11 21.7252 13.8733 21.9825 17.5C21.9942 17.6652 22.0002 17.8319 22.0002 18V19H13.3265C13.5513 18.5268 13.7246 18.0244 13.8391 17.5H20.4776C20.2238 14.7025 17.8622 12.5 15.0002 12.5H13.0637C12.7443 11.9479 12.3517 11.4435 11.8992 11H15.0002Z" fill="#ABB7BF"/>
<path fill-rule="evenodd" clip-rule="evenodd" d="M8.50018 4.50002C8.50018 6.98102 10.5192 9.00002 13.0002 9.00002C15.4812 9.00002 17.5002 6.98102 17.5002 4.50002C17.5002 2.01902 15.4812 1.52588e-05 13.0002 1.52588e-05C10.5192 1.52588e-05 8.50018 2.01902 8.50018 4.50002ZM13.0002 7.50002C11.3476 7.50002 10.0002 6.15259 10.0002 4.50002C10.0002 2.84744 11.3476 1.50002 13.0002 1.50002C14.6528 1.50002 16.0002 2.84744 16.0002 4.50002C16.0002 6.15259 14.6528 7.50002 13.0002 7.50002Z" fill="#ABB7BF"/>
<path d="M6.50747 10.25C6.99748 10.2554 7.48556 10.3098 7.96385 10.4122C8.17264 10.4569 8.32878 10.6241 8.35248 10.8282L8.46611 11.807C8.51754 12.2564 8.9127 12.5967 9.3838 12.5972C9.51042 12.5974 9.63568 12.5721 9.75269 12.5224L10.6877 12.128C10.8822 12.0459 11.1094 12.0906 11.2546 12.2395C11.9304 12.9325 12.4336 13.7636 12.7265 14.6703C12.7897 14.8658 12.717 15.0783 12.5454 15.1997L11.7166 15.7863C11.4801 15.9531 11.3405 16.218 11.3405 16.4997C11.3405 16.7814 11.4801 17.0463 11.7171 17.2134L12.5466 17.8002C12.7183 17.9217 12.791 18.1342 12.7279 18.3297C12.4351 19.2363 11.9321 20.0673 11.2568 20.7604C11.1117 20.9092 10.8847 20.9541 10.6902 20.8723L9.75133 20.4773C9.48274 20.3644 9.17426 20.381 8.92042 20.5218C8.66659 20.6627 8.49765 20.9111 8.4654 21.1909L8.35252 22.1696C8.32925 22.3713 8.17646 22.5374 7.97076 22.5843C7.00377 22.8053 5.9963 22.8053 5.02931 22.5843C4.8236 22.5374 4.67082 22.3713 4.64754 22.1696L4.53484 21.1924C4.50173 20.9131 4.33254 20.6654 4.07891 20.525C3.82528 20.3847 3.51731 20.3682 3.2496 20.4804L2.31053 20.8755C2.11603 20.9573 1.88892 20.9124 1.74388 20.7635C1.06816 20.0696 0.56517 19.2376 0.272766 18.33C0.209785 18.1346 0.282553 17.9222 0.454116 17.8009L1.28417 17.2137C1.52059 17.0469 1.66022 16.782 1.66022 16.5003C1.66022 16.2186 1.52059 15.9538 1.28386 15.7867L0.454327 15.2006C0.282509 15.0792 0.209674 14.8666 0.272877 14.6709C0.565788 13.7642 1.06904 12.9331 1.74478 12.2402C1.88996 12.0913 2.11717 12.0466 2.31165 12.1286L3.24654 12.5229C3.51554 12.6363 3.8248 12.6192 4.07981 12.4761C4.33371 12.3347 4.50274 12.0861 4.53538 11.8062L4.64892 10.8282C4.67263 10.624 4.82892 10.4568 5.03784 10.4122C5.51669 10.3099 6.00529 10.2556 6.50747 10.25ZM6.5076 11.2115C6.20448 11.2149 5.90222 11.24 5.60331 11.2866L5.53059 11.913C5.4626 12.496 5.11076 13.0135 4.58361 13.3071C4.05324 13.6046 3.40659 13.6404 2.84395 13.4033L2.24425 13.1504C1.86243 13.5954 1.55853 14.0971 1.34448 14.6357L1.87709 15.0121C2.37032 15.3601 2.66162 15.9127 2.66162 16.5003C2.66162 17.088 2.37032 17.6406 1.87761 17.9882L1.34416 18.3656C1.55802 18.9052 1.86197 19.4078 2.24406 19.8537L2.84833 19.5995C3.40784 19.3649 4.05008 19.3992 4.57901 19.692C5.10794 19.9847 5.46078 20.5012 5.52998 21.0851L5.60273 21.7158C6.19665 21.8127 6.80341 21.8127 7.39734 21.7158L7.47008 21.0851C7.53737 20.5014 7.88979 19.9832 8.41935 19.6893C8.94891 19.3955 9.59247 19.361 10.153 19.5965L10.7568 19.8505C11.1385 19.4054 11.4424 18.9035 11.6563 18.3648L11.1236 17.9879C10.6304 17.64 10.3391 17.0874 10.3391 16.4997C10.3391 15.912 10.6304 15.3594 11.123 15.0119L11.655 14.6354C11.441 14.0966 11.137 13.5948 10.7551 13.1498L10.1567 13.4022C9.91276 13.5058 9.64894 13.5591 9.38249 13.5587C8.40133 13.5578 7.57788 12.8485 7.47079 11.9127L7.39807 11.2864C7.10063 11.2399 6.80153 11.2148 6.5076 11.2115ZM6.49914 14.0962C7.88179 14.0962 9.00265 15.1724 9.00265 16.5C9.00265 17.8276 7.88179 18.9039 6.49914 18.9039C5.1165 18.9039 3.99564 17.8276 3.99564 16.5C3.99564 15.1724 5.1165 14.0962 6.49914 14.0962ZM6.49914 15.0577C5.66955 15.0577 4.99704 15.7034 4.99704 16.5C4.99704 17.2966 5.66955 17.9423 6.49914 17.9423C7.32873 17.9423 8.00124 17.2966 8.00124 16.5C8.00124 15.7034 7.32873 15.0577 6.49914 15.0577Z" fill="#ABB7BF"/>
</svg>
