<svg width="20" height="20" viewBox="0 0 20 20" fill="none" xmlns="http://www.w3.org/2000/svg">
<path d="M10.0125 0.25005C10.7465 0.258509 11.4776 0.343312 12.194 0.503088C12.5067 0.572835 12.7406 0.833561 12.7761 1.15201L12.9463 2.67886C13.0234 3.37991 13.6153 3.91089 14.3209 3.91163C14.5106 3.91193 14.6982 3.87243 14.8735 3.79488L16.2741 3.17961C16.5654 3.05164 16.9058 3.12141 17.1232 3.35367C18.1354 4.43469 18.8892 5.7312 19.328 7.14563C19.4226 7.45063 19.3137 7.78208 19.0567 7.97155L17.8152 8.88664C17.461 9.14684 17.2519 9.56005 17.2519 9.99951C17.2519 10.439 17.461 10.8522 17.816 11.1129L19.0585 12.0283C19.3157 12.2178 19.4246 12.5493 19.33 12.8543C18.8914 14.2685 18.138 15.5649 17.1264 16.6461C16.9092 16.8784 16.5691 16.9483 16.2778 16.8207L14.8715 16.2046C14.4691 16.0285 14.0071 16.0543 13.6268 16.274C13.2466 16.4938 12.9936 16.8812 12.9453 17.3178L12.7762 18.8445C12.7413 19.1593 12.5125 19.4182 12.2043 19.4915C10.7559 19.8362 9.24679 19.8362 7.79834 19.4915C7.49021 19.4182 7.26135 19.1593 7.22649 18.8445L7.05767 17.32C7.00808 16.8843 6.75465 16.498 6.37473 16.279C5.99481 16.06 5.53351 16.0343 5.13251 16.2094L3.72588 16.8257C3.43453 16.9533 3.09434 16.8833 2.87709 16.651C1.86493 15.5685 1.1115 14.2706 0.673506 12.8548C0.579167 12.5499 0.688167 12.2187 0.945151 12.0293L2.18848 11.1134C2.54262 10.8532 2.75178 10.44 2.75178 10.0005C2.75178 9.56106 2.54262 9.14784 2.18802 8.8873L0.945467 7.9729C0.688101 7.7835 0.579001 7.45183 0.673673 7.14663C1.11242 5.7322 1.86625 4.43569 2.87843 3.35467C3.0959 3.12241 3.43624 3.05264 3.72755 3.18061L5.12793 3.79577C5.53087 3.97261 5.99411 3.9459 6.37608 3.72274C6.7564 3.50214 7.00959 3.11427 7.05847 2.67769L7.22855 1.15201C7.26407 0.8334 7.49817 0.57259 7.81111 0.502992C8.52838 0.343469 9.26026 0.258703 10.0125 0.25005ZM10 7C8.34315 7 7 8.34315 7 10C7 11.6569 8.34315 13 10 13C11.6569 13 13 11.6569 13 10C13 8.34315 11.6569 7 10 7Z" fill="#083643"/>
</svg>
