<svg width="0" height="0" class="hidden">
  <symbol  xmlns="http://www.w3.org/2000/svg" viewBox="0 0 18 20" id="base-prof">
    <path d="M8.536.91a.75.75 0 01.928 0l7.107 5.6A3.75 3.75 0 0118 9.456v9.294c0 .69-.56 1.25-1.25 1.25h-5c-.69 0-1.25-.56-1.25-1.25v-5a.25.25 0 00-.25-.25h-2.5a.25.25 0 00-.25.25v5c0 .69-.56 1.25-1.25 1.25h-5C.56 20 0 19.44 0 18.75V9.456A3.75 3.75 0 011.43 6.51L8.535.91zM9 2.456L2.358 7.688A2.25 2.25 0 001.5 9.456V18.5H6v-4.75c0-.966.784-1.75 1.75-1.75h2.5c.966 0 1.75.784 1.75 1.75v4.75h4.5V9.456c0-.69-.316-1.341-.857-1.768L9 2.455z"></path>
  </symbol>
  <symbol  xmlns="http://www.w3.org/2000/svg" viewBox="0 0 24 24" id="Contacts">
    <path   d="M12.598 11.43c.29.063.592.096.902.096 2.343 0 4.25-1.912 4.25-4.263C17.75 4.913 15.843 3 13.5 3a4.23 4.23 0 00-.947.107 5.352 5.352 0 011.57 1.465 2.767 2.767 0 01.092 5.36 4.654 4.654 0 01-1.617 1.498zm6.702 8.623V21H22v-.947c0-.186-.008-.37-.023-.553-.28-3.398-3.129-6.079-6.588-6.079h-.68a7.162 7.162 0 012.745 1.939 5.146 5.146 0 013.017 4.14h-1.195c.016.183.024.368.024.553z" ></path>
    <path  d="M9.5 10.776A3.512 3.512 0 016 7.263 3.512 3.512 0 019.5 3.75c1.927 0 3.5 1.575 3.5 3.513a3.512 3.512 0 01-3.5 3.513zm7.75 9.277v.197H1.75v-.197c0-3.244 2.632-5.882 5.861-5.882h3.778c3.228 0 5.861 2.638 5.861 5.882z" stroke-width="1.5"></path>
  </symbol>
  <symbol xmlns="http://www.w3.org/2000/svg" viewBox="0 0 18 20" id="exit">
    <path d="M10.682 6.964V3.9c0-.84 0-1.26-.163-1.581a1.5 1.5 0 00-.656-.656c-.32-.163-.74-.163-1.58-.163H3.399c-.84 0-1.26 0-1.581.163a1.5 1.5 0 00-.656.656C1 2.639 1 3.059 1 3.9v12.2c0 .84 0 1.26.163 1.581a1.5 1.5 0 00.656.655c.32.164.74.164 1.581.164h4.882c.84 0 1.26 0 1.581-.163a1.5 1.5 0 00.656-.656c.163-.32.163-.74.163-1.581v-3.064M7.933 10H17m0 0l-2.667 3.036M17 10l-2.667-3.036"  stroke-width="1.5" stroke-linejoin="round"></path>
  </symbol>
  <symbol  xmlns="http://www.w3.org/2000/svg" viewBox="0 0 20 20" id="help">
    <path d="M10 0c5.523 0 10 4.478 10 10s-4.477 10-10 10S0 15.522 0 10 4.477 0 10 0zm0 1.667c-4.595 0-8.333 3.738-8.333 8.333 0 4.595 3.738 8.333 8.333 8.333 4.595 0 8.333-3.738 8.333-8.333 0-4.595-3.738-8.333-8.333-8.333zM10 13.5a1 1 0 110 2 1 1 0 010-2zm0-8.75a2.75 2.75 0 012.75 2.75c0 1.01-.297 1.574-1.051 2.359l-.169.171c-.622.622-.78.886-.78 1.47a.75.75 0 01-1.5 0c0-1.01.298-1.574 1.051-2.359l.169-.171c.622-.622.78-.886.78-1.47a1.25 1.25 0 00-2.494-.128L8.75 7.5a.75.75 0 01-1.5 0A2.75 2.75 0 0110 4.75z"></path>
  </symbol>
  <symbol  xmlns="http://www.w3.org/2000/svg" viewBox="0 0 24 24" id="Learning">
    <path d="M1.5 9L12 3l10.5 6L12 15 1.5 9z"  stroke-width="1.5" stroke-linecap="round" stroke-linejoin="round"></path>
    <path d="M5.25 14.25v3L12 21l6.75-3.75v-3m3.75 3V9"  stroke-width="1.5" stroke-linecap="round" stroke-linejoin="round"></path>
  </symbol>
  <symbol  xmlns="http://www.w3.org/2000/svg" viewBox="0 0 19 16" id="mail">
    <path d="M3.034 0h12.602c1.618 0 2.94 1.3 3.03 2.937l.004.177v9.102c0 1.66-1.266 3.018-2.862 3.11l-.172.004H3.034c-1.618 0-2.94-1.3-3.03-2.937L0 12.216V3.114C0 1.454 1.266.097 2.862.004L3.034 0zM17.27 5.148L9.66 9.259a.684.684 0 01-.562.04l-.09-.04L1.4 5.149v7.067c0 .88.66 1.601 1.5 1.671l.134.006h12.602c.857 0 1.56-.678 1.628-1.54l.006-.137V5.148zm-1.634-3.71H3.034c-.857 0-1.56.677-1.628 1.538l-.006.138v.41l7.935 4.287 7.935-4.287v-.41c0-.88-.66-1.601-1.5-1.671l-.134-.006z" ></path>
  </symbol>
  <symbol  xmlns="http://www.w3.org/2000/svg" viewBox="0 0 20 20" id="set">
    <path d="M10.012.25c.734.009 1.466.093 2.182.253a.75.75 0 01.582.649l.17 1.527a1.384 1.384 0 001.928 1.116l1.4-.615a.75.75 0 01.85.174 9.793 9.793 0 012.204 3.792.75.75 0 01-.271.826l-1.242.915a1.38 1.38 0 00.001 2.226l1.242.915a.75.75 0 01.272.826 9.798 9.798 0 01-2.204 3.792.75.75 0 01-.848.175l-1.406-.616a1.381 1.381 0 00-1.927 1.113l-.169 1.526a.75.75 0 01-.572.647 9.515 9.515 0 01-4.406 0 .75.75 0 01-.572-.646l-.168-1.525a1.382 1.382 0 00-1.925-1.11l-1.407.616a.75.75 0 01-.849-.175 9.798 9.798 0 01-2.203-3.796.75.75 0 01.271-.826l1.243-.916a1.381 1.381 0 000-2.226L.945 7.973a.75.75 0 01-.271-.826 9.793 9.793 0 012.204-3.792.75.75 0 01.85-.174l1.4.615a1.387 1.387 0 001.93-1.118l.17-1.526a.75.75 0 01.583-.649A10.66 10.66 0 0110.012.25zM10 7a3 3 0 100 6 3 3 0 000-6z"></path>
  </symbol>
  <symbol  xmlns="http://www.w3.org/2000/svg" viewBox="0 0 22 23" id="set-prof">
    <path d="M15 11c3.691 0 6.725 2.873 6.983 6.5.011.165.017.332.017.5v1h-8.674c.225-.473.399-.976.513-1.5h6.639a5.51 5.51 0 00-5.478-5h-1.936a7.032 7.032 0 00-1.165-1.5H15z" ></path>
    <path fill-rule="evenodd" clip-rule="evenodd" d="M8.5 4.5C8.5 6.981 10.52 9 13 9c2.481 0 4.5-2.019 4.5-4.5S15.481 0 13 0a4.506 4.506 0 00-4.5 4.5zm4.5 3c-1.652 0-3-1.347-3-3s1.348-3 3-3c1.653 0 3 1.347 3 3s-1.347 3-3 3z"></path>
    <path d="M6.507 10.25c.49.005.979.06 1.457.162a.488.488 0 01.388.416l.114.979c.052.45.447.79.918.79a.939.939 0 00.369-.075l.935-.394a.515.515 0 01.567.111 6.225 6.225 0 011.471 2.431.47.47 0 01-.18.53l-.83.586a.874.874 0 00-.375.714c0 .281.14.546.376.713l.83.587a.47.47 0 01.18.53 6.228 6.228 0 01-1.47 2.43.516.516 0 01-.567.112l-.939-.395a.956.956 0 00-.83.045.884.884 0 00-.456.669l-.112.979a.488.488 0 01-.382.414 6.608 6.608 0 01-2.942 0 .488.488 0 01-.381-.414l-.113-.978a.885.885 0 00-.456-.667.957.957 0 00-.83-.045l-.938.395a.516.516 0 01-.567-.111A6.228 6.228 0 01.273 18.33a.47.47 0 01.181-.53l.83-.586a.874.874 0 00.376-.714.875.875 0 00-.376-.713l-.83-.586a.47.47 0 01-.181-.53 6.224 6.224 0 011.472-2.43.516.516 0 01.567-.112l.935.394a.952.952 0 00.833-.047.888.888 0 00.455-.67l.114-.978a.488.488 0 01.389-.416 7.403 7.403 0 011.47-.162zm0 .961a6.332 6.332 0 00-.904.076l-.072.626c-.068.583-.42 1.1-.947 1.394a1.99 1.99 0 01-1.74.096l-.6-.253a5.272 5.272 0 00-.9 1.486l.533.376c.493.348.785.9.785 1.488s-.292 1.14-.784 1.488l-.534.378c.214.54.518 1.042.9 1.488l.604-.255c.56-.234 1.202-.2 1.731.093.529.293.882.81.951 1.393l.073.63a5.51 5.51 0 001.794 0l.073-.63c.067-.584.42-1.102.95-1.396a1.994 1.994 0 011.733-.093l.604.255c.382-.446.685-.947.9-1.486l-.533-.377a1.824 1.824 0 01-.785-1.488c0-.588.291-1.14.784-1.488l.532-.377a5.268 5.268 0 00-.9-1.485l-.598.252a1.975 1.975 0 01-.775.157c-.98-.001-1.804-.71-1.911-1.646l-.073-.627a6.234 6.234 0 00-.89-.075zM6.5 14.096c1.383 0 2.504 1.076 2.504 2.404 0 1.328-1.121 2.404-2.504 2.404-1.382 0-2.503-1.076-2.503-2.404 0-1.328 1.12-2.404 2.503-2.404zm0 .962c-.83 0-1.502.645-1.502 1.442 0 .797.673 1.442 1.502 1.442.83 0 1.502-.645 1.502-1.442 0-.797-.672-1.442-1.502-1.442z" ></path>
  </symbol>
</svg>